#!OML:ASF E:\motion texture\Top Level 1\Subject 1\Session 1\male.ASF
:FULLY-SPECIFIED
:DEGREES
145
root 27.442 17.1303 2.25659 43.5117 -76.2121 -29.4008
lowerback 17.6649 0.835147 -2.97068
upperback 3.47968 0.115466 -3.20161
thorax -6.16343 -0.000949108 -1.74774
lowerneck -11.3621 -1.96545 -8.52324
upperneck -4.79415 -1.85914 16.9464
head 0.775876 -0.724027 6.52878
rclavicle 2.38542e-015 9.54166e-015
rhumerus 50.4438 19.395 -68.2054
rradius 85.0644
rwrist 29.8014
rhand -28.5378 -26.2447
rfingers 7.12502
rthumb -1.90531 -56.216
lclavicle 2.38542e-015 9.54166e-015
lhumerus 40.5925 -21.38 89.1514
lradius 79.4577
lwrist 30.5751
lhand -11.5535 41.3938
lfingers 7.12502
lthumb 14.4873 70.8681
rfemur -46.8967 -5.81363 34.2403
rtibia 31.181
rfoot 1.49791 -8.98946
rtoes 19.5675
lfemur -31.0302 -5.06169 -1.35739
ltibia 57.6614
lfoot -12.5658 -10.4501
ltoes -21.859
146
root 27.2588 17.1519 2.22379 44.3457 -76.0136 -30.1936
lowerback 17.7132 0.855194 -2.85125
upperback 3.48209 0.163879 -3.17187
thorax -6.18607 0.0209809 -1.79535
lowerneck -11.4077 -1.99124 -8.4791
upperneck -4.80347 -1.89861 16.9897
head 0.786462 -0.743309 6.53312
rclavicle -3.18055e-015 2.22639e-014
rhumerus 50.5619 19.3787 -68.1989
rradius 85.2225
rwrist 30.0648
rhand -28.3835 -26.2201
rfingers 7.12502
rthumb -1.75631 -56.1926
lclavicle -3.18055e-015 2.22639e-014
lhumerus 40.3372 -21.333 89.1499
lradius 80.0126
lwrist 31.0047
lhand -11.7517 41.5323
lfingers 7.12502
lthumb 14.2963 71.0201
rfemur -46.5543 -5.8256 34.8187
rtibia 31.5856
rfoot 1.14647 -8.76504
rtoes 19.9764
lfemur -31.7614 -5.05843 -0.815334
ltibia 58.2818
lfoot -12.0743 -10.4874
ltoes -21.9025
147
root 27.0753 17.1743 2.19246 45.1345 -75.8175 -30.948
lowerback 17.7441 0.876028 -2.7299
upperback 3.48361 0.214687 -3.1437
thorax -6.20011 0.0440307 -1.84609
lowerneck -11.4625 -2.01948 -8.43009
upperneck -4.79816 -1.94323 17.0325
head 0.803381 -0.764287 6.53608
rclavicle -1.98785e-014 1.90833e-014
rhumerus 50.5951 19.4161 -68.1696
rradius 85.4173
rwrist 30.297
rhand -28.2069 -26.1938
rfingers 7.12502
rthumb -1.58577 -56.1677
lclavicle -1.98785e-014 1.90833e-014
lhumerus 39.9946 -21.317 89.1395
lradius 80.6261
lwrist 31.4357
lhand -11.9138 41.6406
lfingers 7.12502
lthumb 14.14 71.1394
rfemur -46.1776 -5.84473 35.3784
rtibia 31.9656
rfoot 0.772407 -8.55299
rtoes 20.357
lfemur -32.5015 -5.05453 -0.303431
ltibia 58.8369
lfoot -11.6301 -10.4842
ltoes -21.9098
148
root 26.8918 17.1975 2.16276 45.8796 -75.6258 -31.664
lowerback 17.7554 0.899131 -2.60749
upperback 3.484 0.269733 -3.117
thorax -6.20451 0.0691353 -1.8997
lowerneck -11.5243 -2.05067 -8.37661
upperneck -4.77967 -1.99355 17.0735
head 0.825894 -0.787345 6.53731
rclavicle 4.29375e-014 3.49861e-014
rhumerus 50.5391 19.5044 -68.1204
rradius 85.6503
rwrist 30.4975
rhand -27.9908 -26.1598
rfingers 7.12502
rthumb -1.37701 -56.1351
lclavicle 4.29375e-014 3.49861e-014
lhumerus 39.5603 -21.3346 89.1238
lradius 81.2989
lwrist 31.86
lhand -12.0388 41.7203
lfingers 7.12502
lthumb 14.0196 71.2275
rfemur -45.7679 -5.86926 35.9161
rtibia 32.3163
rfoot 0.370611 -8.35432
rtoes 20.6977
lfemur -33.2475 -5.04839 0.174844
ltibia 59.32
lfoot -11.2341 -10.4396
ltoes -21.8852
149
root 26.7079 17.2214 2.13472 46.5755 -75.4375 -32.3377
lowerback 17.7476 0.923636 -2.48378
upperback 3.48428 0.327815 -3.09179
thorax -6.19847 0.0957098 -1.95602
lowerneck -11.5945 -2.08486 -8.31953
upperneck -4.74814 -2.04954 17.114
head 0.854195 -0.812401 6.53733
rclavicle -2.38542e-015 7.31528e-014
rhumerus 50.3917 19.6451 -68.0545
rradius 85.9228
rwrist 30.6636
rhand -27.7384 -26.1055
rfingers 7.12502
rthumb -1.13329 -56.0822
lclavicle -2.38542e-015 7.31528e-014
lhumerus 39.0338 -21.3854 89.1019
lradius 82.0282
lwrist 32.2797
lhand -12.1238 41.7694
lfingers 7.12502
lthumb 13.9377 71.2822
rfemur -45.3214 -5.89924 36.4296
rtibia 32.6307
rfoot -0.0615111 -8.17234
rtoes 21.0104
lfemur -33.9923 -5.04106 0.617872
ltibia 59.7233
lfoot -10.886 -10.3527
ltoes -21.8297
150
root 26.5237 17.2458 2.10848 47.2265 -75.2539 -32.9717
lowerback 17.7185 0.948604 -2.35722
upperback 3.48415 0.387971 -3.06883
thorax -6.18112 0.12329 -2.01643
lowerneck -11.6745 -2.12218 -8.25998
upperneck -4.70198 -2.11139 17.1541
head 0.889052 -0.839368 6.53637
rclavicle -1.35174e-014 -1.59028e-014
rhumerus 50.1521 19.8427 -67.9744
rradius 86.2368
rwrist 30.7987
rhand -27.4596 -26.026
rfingers 7.12502
rthumb -0.863991 -56.004
lclavicle -1.35174e-014 -1.59028e-014
lhumerus 38.4131 -21.4673 89.0741
lradius 82.8112
lwrist 32.6903
lhand -12.1759 41.7893
lfingers 7.12502
lthumb 13.8875 71.3056
rfemur -44.8389 -5.93231 36.9176
rtibia 32.9039
rfoot -0.537187 -8.00856
rtoes 21.2786
lfemur -34.7335 -5.03157 1.02338
ltibia 60.0409
lfoot -10.5841 -10.2216
ltoes -21.7466
151
root 26.3391 17.2706 2.08408 47.8351 -75.0748 -33.5679
lowerback 17.6663 0.97454 -2.22688
upperback 3.48372 0.451028 -3.04819
thorax -6.15134 0.152295 -2.08164
lowerneck -11.7634 -2.16244 -8.19694
upperneck -4.64341 -2.17882 17.1928
head 0.929563 -0.868254 6.53396
rclavicle -3.18055e-015 -2.54444e-014
rhumerus 49.8181 20.0967 -67.8822
rradius 86.5923
rwrist 30.9046
rhand -27.1477 -25.9269
rfingers 7.12502
rthumb -0.562776 -55.9059
lclavicle -3.18055e-015 -2.54444e-014
lhumerus 37.6969 -21.5821 89.0409
lradius 83.6454
lwrist 33.0929
lhand -12.1893 41.7826
lfingers 7.12502
lthumb 13.8745 71.2998
rfemur -44.32 -5.96954 37.3812
rtibia 33.1292
rfoot -1.0595 -7.85174
rtoes 21.4663
lfemur -35.4666 -5.01946 1.39099
ltibia 60.2665
lfoot -10.3283 -10.0439
ltoes -21.64
152
root 26.1541 17.2958 2.0616 48.4008 -74.8997 -34.1261
lowerback 17.5914 1.00103 -2.09242
upperback 3.4831 0.516444 -3.02918
thorax -6.10912 0.1825 -2.15092
lowerneck -11.8602 -2.2057 -8.13173
upperneck -4.5733 -2.25171 17.2301
head 0.975315 -0.899018 6.53029
rclavicle 5.08889e-014 -9.85972e-014
rhumerus 49.3909 20.4102 -67.7798
rradius 86.9887
rwrist 30.9787
rhand -26.8022 -25.8133
rfingers 7.12502
rthumb -0.229031 -55.7929
lclavicle 5.08889e-014 -9.85972e-014
lhumerus 36.8842 -21.7298 89.0027
lradius 84.5287
lwrist 33.4933
lhand -12.1694 41.7539
lfingers 7.12502
lthumb 13.8938 71.2698
rfemur -43.7637 -6.01144 37.82
rtibia 33.3066
rfoot -1.61203 -7.70377
rtoes 21.5595
lfemur -36.1866 -5.0055 1.71985
ltibia 60.3942
lfoot -10.1155 -9.81815
ltoes -21.513
153
root 25.9686 17.321 2.04104 48.922 -74.7291 -34.6436
lowerback 17.4913 1.02853 -1.95497
upperback 3.48251 0.584656 -3.01145
thorax -6.05288 0.214183 -2.22321
lowerneck -11.9631 -2.25211 -8.06382
upperneck -4.49357 -2.33022 17.2645
head 1.02542 -0.931892 6.52482
rclavicle -5.56597e-015 1.27222e-014
rhumerus 48.8701 20.7841 -67.6682
rradius 87.4264
rwrist 31.0166
rhand -26.4195 -25.6869
rfingers 7.12502
rthumb 0.140603 -55.6666
lclavicle -5.56597e-015 1.27222e-014
lhumerus 35.975 -21.9116 88.9617
lradius 85.4587
lwrist 33.8976
lhand -12.1191 41.7026
lfingers 7.12502
lthumb 13.9423 71.2151
rfemur -43.1719 -6.05632 38.2319
rtibia 33.439
rfoot -2.17027 -7.57972
rtoes 21.5867
lfemur -36.8906 -4.98922 2.00834
ltibia 60.4187
lfoot -9.9417 -9.54351
ltoes -21.3705
154
root 25.7825 17.3461 2.02243 49.3994 -74.5618 -35.1209
lowerback 17.3671 1.05545 -1.81233
upperback 3.48056 0.653763 -2.99561
thorax -5.98472 0.24644 -2.29997
lowerneck -12.0699 -2.30061 -7.99284
upperneck -4.40368 -2.41309 17.2964
head 1.07955 -0.966298 6.5176
rclavicle -3.65764e-014 3.18055e-015
rhumerus 48.2561 21.2228 -67.5525
rradius 87.9036
rwrist 31.0123
rhand -26.0013 -25.5478
rfingers 7.12502
rthumb 0.544509 -55.5268
lclavicle -3.65764e-014 3.18055e-015
lhumerus 34.9665 -22.1258 88.9174
lradius 86.4311
lwrist 34.3087
lhand -12.0437 41.6286
lfingers 7.12502
lthumb 14.0149 71.1361
rfemur -42.5459 -6.10635 38.6188
rtibia 33.5271
rfoot -2.71099 -7.48406
rtoes 21.6057
lfemur -37.5755 -4.97144 2.25673
ltibia 60.3368
lfoot -9.8036 -9.21825
ltoes -21.2153
155
root 25.5959 17.371 2.00575 49.8358 -74.3989 -35.5616
lowerback 17.2195 1.08232 -1.66532
upperback 3.47787 0.724203 -2.98097
thorax -5.90421 0.279529 -2.38002
lowerneck -12.1811 -2.35124 -7.92056
upperneck -4.30409 -2.50011 17.3257
head 1.13759 -1.00209 6.50898
rclavicle -2.06736e-014 8.74653e-014
rhumerus 47.5507 21.7279 -67.4354
rradius 88.418
rwrist 30.9665
rhand -25.5503 -25.399
rfingers 7.12502
rthumb 0.980069 -55.3764
lclavicle -2.06736e-014 8.74653e-014
lhumerus 33.8601 -22.3714 88.8718
lradius 87.441
lwrist 34.7169
lhand -11.9347 41.5315
lfingers 7.12502
lthumb 14.1199 71.0318
rfemur -41.8868 -6.1616 38.9823
rtibia 33.5705
rfoot -3.24118 -7.41706
rtoes 21.5659
lfemur -38.2353 -4.95029 2.46445
ltibia 60.1434
lfoot -9.6964 -8.84407
ltoes -21.0476
156
root 25.4087 17.3956 1.99104 50.2307 -74.2406 -35.9643
lowerback 17.0481 1.10877 -1.51338
upperback 3.47451 0.795435 -2.96781
thorax -5.81117 0.313212 -2.46378
lowerneck -12.298 -2.40409 -7.84807
upperneck -4.19471 -2.59125 17.353
head 1.19984 -1.03916 6.4993
rclavicle -5.96354e-014 -6.04305e-014
rhumerus 46.757 22.3002 -67.3194
rradius 88.9683
rwrist 30.8792
rhand -25.0617 -25.2481
rfingers 7.12502
rthumb 1.45199 -55.2229
lclavicle -5.96354e-014 -6.04305e-014
lhumerus 32.6572 -22.6479 88.8264
lradius 88.4804
lwrist 35.1096
lhand -11.7921 41.4119
lfingers 7.12502
lthumb 14.2574 70.9025
rfemur -41.198 -6.22085 39.3209
rtibia 33.5736
rfoot -3.77748 -7.3612
rtoes 21.4596
lfemur -38.8684 -4.92713 2.63062
ltibia 59.8369
lfoot -9.6136 -8.42042
ltoes -20.8692
